<svg width="20" height="20" viewBox="0 0 20 20" fill="none" xmlns="http://www.w3.org/2000/svg">
<path fill-rule="evenodd" clip-rule="evenodd" d="M16.25 2.5H7.5C6.8125 2.5 6.25 3.0625 6.25 3.75C6.25 4.4375 6.8125 5 7.5 5H13.2375L2.875 15.3625C2.6375 15.5875 2.5 15.9 2.5 16.25C2.5 16.9375 3.0625 17.5 3.75 17.5C4.1 17.5 4.4125 17.3625 4.6375 17.1375L15 6.7625V12.5C15 13.1875 15.5625 13.75 16.25 13.75C16.9375 13.75 17.5 13.1875 17.5 12.5V3.75C17.5 3.0625 16.9375 2.5 16.25 2.5Z" fill="#05051E"/>
</svg>
