<svg width="20" height="20" viewBox="0 0 20 20" fill="none" xmlns="http://www.w3.org/2000/svg">
<path fill-rule="evenodd" clip-rule="evenodd" d="M17.5 3.75C17.5 3.0625 16.9375 2.5 16.25 2.5C15.9 2.5 15.5875 2.6375 15.3625 2.8625L5 13.2375V7.5C5 6.8125 4.4375 6.25 3.75 6.25C3.0625 6.25 2.5 6.8125 2.5 7.5V16.25C2.5 16.9375 3.0625 17.5 3.75 17.5H12.5C13.1875 17.5 13.75 16.9375 13.75 16.25C13.75 15.5625 13.1875 15 12.5 15H6.7625L17.125 4.6375C17.3625 4.4125 17.5 4.1 17.5 3.75Z" fill="#05051E"/>
</svg>
