<svg width="33" height="32" viewBox="0 0 33 32" fill="none" xmlns="http://www.w3.org/2000/svg">
<path fill-rule="evenodd" clip-rule="evenodd" d="M26.5 22H30.5V10H26.5V22ZM6.5 10H2.5V22H6.5V10ZM28.5 8C30.7 8 32.5 6.2 32.5 4C32.5 1.8 30.7 -1.21428e-07 28.5 -1.21428e-07C26.3 -1.21428e-07 24.5 1.8 24.5 4C24.5 6.2 26.3 8 28.5 8ZM4.5 24C2.3 24 0.5 25.8 0.5 28C0.5 30.2 2.3 32 4.5 32C6.7 32 8.5 30.2 8.5 28C8.5 25.8 6.7 24 4.5 24ZM28.5 24C26.3 24 24.5 25.8 24.5 28C24.5 30.2 26.3 32 28.5 32C30.7 32 32.5 30.2 32.5 28C32.5 25.8 30.7 24 28.5 24ZM10.5 6H22.5V2H10.5V6ZM4.5 0C2.3 0 0.5 1.8 0.5 4C0.5 6.2 2.3 8 4.5 8C6.7 8 8.5 6.2 8.5 4C8.5 1.8 6.7 0 4.5 0ZM10.5 30H22.5V26H10.5V30Z" fill="#F7F7F8"/>
</svg>
