<svg width="20" height="21" viewBox="0 0 20 21" fill="none" xmlns="http://www.w3.org/2000/svg">
<rect x="0.5" y="0.798828" width="19" height="19" rx="9.5" fill="#040406"/>
<rect x="0.5" y="0.798828" width="19" height="19" rx="9.5" stroke="white"/>
<path d="M9.76136 7.48065V13.2988H8.82386L6.08239 9.33576H6.03409V13.2988H4.98011V7.48065H5.9233L8.66193 11.4466H8.71307V7.48065H9.76136ZM10.9098 13.2988V7.48065H13.1371C13.5575 7.48065 13.907 7.54693 14.1854 7.67951C14.4657 7.81019 14.675 7.98917 14.8132 8.21644C14.9534 8.44371 15.0234 8.70129 15.0234 8.98917C15.0234 9.22591 14.978 9.42856 14.8871 9.59712C14.7962 9.76379 14.674 9.89921 14.5206 10.0034C14.3672 10.1075 14.1958 10.1824 14.0064 10.2278V10.2846C14.2128 10.296 14.4107 10.3594 14.6001 10.475C14.7914 10.5886 14.9477 10.7496 15.0689 10.9579C15.1901 11.1663 15.2507 11.4181 15.2507 11.7136C15.2507 12.0147 15.1778 12.2856 15.032 12.5261C14.8861 12.7647 14.6664 12.9532 14.3729 13.0914C14.0793 13.2297 13.71 13.2988 13.2649 13.2988H10.9098ZM11.9638 12.4181H13.0973C13.4799 12.4181 13.7554 12.3452 13.924 12.1994C14.0945 12.0517 14.1797 11.8623 14.1797 11.6312C14.1797 11.4589 14.1371 11.3036 14.0518 11.1653C13.9666 11.0252 13.8454 10.9153 13.6882 10.8358C13.531 10.7543 13.3435 10.7136 13.1257 10.7136H11.9638V12.4181ZM11.9638 9.95508H13.0064C13.1882 9.95508 13.352 9.92193 13.4979 9.85565C13.6437 9.78746 13.7583 9.69182 13.8416 9.56871C13.9268 9.44371 13.9695 9.29599 13.9695 9.12553C13.9695 8.90015 13.8899 8.71455 13.7308 8.56871C13.5736 8.42288 13.3397 8.34996 13.0291 8.34996H11.9638V9.95508Z" fill="white"/>
</svg>
