<svg width="20" height="20" viewBox="0 0 20 20" fill="none" xmlns="http://www.w3.org/2000/svg">
<path fill-rule="evenodd" clip-rule="evenodd" d="M19.9875 1.4125C19.9625 0.899995 19.575 0.449995 19.0125 0.324995C15.325 -0.450005 12.3 0.162495 10 2.125C7.7 0.162495 4.675 -0.450005 0.975 0.324995C0.4125 0.437495 0.0375 0.899995 0.0125 1.4125H0V16.4125C0 16.5125 0 16.625 0.025 16.7375C0.175 17.375 0.8375 17.7625 1.5125 17.625C4.8 16.9375 7.25 17.575 9.025 19.5875C9.05 19.625 9.1 19.6375 9.125 19.6625C9.15 19.6875 9.1625 19.7125 9.1875 19.7375C9.2375 19.775 9.3 19.7875 9.35 19.825C9.4125 19.8625 9.4625 19.8875 9.525 19.9125C9.6625 19.9625 9.8125 20 9.9625 20C9.975 20 9.975 20 9.9875 20C10 20 10 20 10.0125 20C10.1625 20 10.3125 19.9625 10.45 19.9125C10.5125 19.8875 10.5625 19.85 10.625 19.825C10.675 19.8 10.7375 19.775 10.7875 19.7375C10.8125 19.7125 10.825 19.6875 10.85 19.6625C10.8875 19.6375 10.925 19.625 10.95 19.5875C12.725 17.5875 15.1875 16.9375 18.4625 17.625C19.1375 17.7625 19.8 17.3625 19.95 16.7375C20 16.625 20 16.5125 20 16.4125L19.9875 1.4125ZM8.75 16.2376C7 15.2001 4.9125 14.8126 2.5 15.0751V2.45008C5.1375 2.10008 7.1875 2.70008 8.75 4.27508V16.2376ZM17.5 15.0876C15.0875 14.8251 13 15.2126 11.25 16.2501V4.27508C12.8125 2.70008 14.8625 2.10008 17.5 2.45008V15.0876Z" fill="white"/>
</svg>
