<svg width="20" height="20" viewBox="0 0 20 20" fill="none" xmlns="http://www.w3.org/2000/svg">
<path fill-rule="evenodd" clip-rule="evenodd" d="M16.25 0H3.75C3.0625 0 2.5 0.5625 2.5 1.25V18.75C2.5 19.4375 3.0625 20 3.75 20H16.25C16.9375 20 17.5 19.4375 17.5 18.75V1.25C17.5 0.5625 16.9375 0 16.25 0ZM7.5 17.5H5V15H7.5V17.5ZM7.5 13.75H5V11.25H7.5V13.75ZM7.5 10H5V7.5H7.5V10ZM11.25 17.5H8.75V15H11.25V17.5ZM11.25 13.75H8.75V11.25H11.25V13.75ZM11.25 10H8.75V7.5H11.25V10ZM15 17.5H12.5V11.25H15V17.5ZM15 10H12.5V7.5H15V10ZM15 6.25H5V2.5H15V6.25Z" fill="#05051E"/>
</svg>
