<svg width="12" height="12" viewBox="0 0 12 12" fill="none" xmlns="http://www.w3.org/2000/svg">
<path fill-rule="evenodd" clip-rule="evenodd" d="M8.25 2.25C8.7 2.25 9 1.875 9 1.5V0.75C9 0.3 8.7 -2.50002e-08 8.25 -2.50002e-08C7.8 -2.50002e-08 7.5 0.3 7.5 0.75V1.5C7.5 1.875 7.8 2.25 8.25 2.25ZM10.5 0.75H9.75V1.5C9.75 2.325 9.075 3 8.25 3C7.425 3 6.75 2.325 6.75 1.5V0.75H4.5V1.5C4.5 2.325 3.825 3 3 3C2.175 3 1.5 2.325 1.5 1.5V0.75H0.75C0.3 0.75 -2.50002e-08 1.125 -2.50002e-08 1.5V10.5C-2.50002e-08 10.95 0.3 11.25 0.75 11.25H10.5C10.95 11.25 11.25 10.95 11.25 10.5V1.5C11.25 1.05 10.875 0.75 10.5 0.75ZM3.75 9.75H1.5V7.5H3.75V9.75ZM3.75 6.75H1.5V4.5H3.75V6.75ZM6.75 9.75H4.5V7.5H6.75V9.75ZM6.75 6.75H4.5V4.5H6.75V6.75ZM9.75 9.75H7.5V7.5H9.75V9.75ZM9.75 6.75H7.5V4.5H9.75V6.75ZM3 2.25C3.45 2.25 3.75 1.875 3.75 1.5V0.75C3.75 0.3 3.45 -2.50002e-08 3 -2.50002e-08C2.55 -2.50002e-08 2.25 0.3 2.25 0.75V1.5C2.25 1.875 2.55 2.25 3 2.25Z" fill="url(#paint0_linear_2436_16718)"/>
<defs>
<linearGradient id="paint0_linear_2436_16718" x1="10.735" y1="-5.88496e-07" x2="-3.30184" y2="0.275994" gradientUnits="userSpaceOnUse">
<stop stop-color="#EC3228"/>
<stop offset="0.666366" stop-color="#F66B34"/>
<stop offset="1" stop-color="#FF9B3F"/>
</linearGradient>
</defs>
</svg>
