<svg width="21" height="20" viewBox="0 0 21 20" fill="none" xmlns="http://www.w3.org/2000/svg">
<path fill-rule="evenodd" clip-rule="evenodd" d="M19.6914 1.25H12.1914C12.1914 0.5625 11.6289 0 10.9414 0C10.2539 0 9.69141 0.5625 9.69141 1.25H2.19141C1.50391 1.25 0.941406 1.8125 0.941406 2.5C0.941406 3.1875 1.50391 3.75 2.19141 3.75V13.75C2.19141 14.4375 2.75391 15 3.44141 15H7.92891L5.06641 17.8625C4.82891 18.0875 4.69141 18.4 4.69141 18.75C4.69141 19.4375 5.25391 20 5.94141 20C6.29141 20 6.60391 19.8625 6.82891 19.6375L9.69141 16.7625V18.75C9.69141 19.4375 10.2539 20 10.9414 20C11.6289 20 12.1914 19.4375 12.1914 18.75V16.7625L15.0539 19.625C15.2789 19.8625 15.5914 20 15.9414 20C16.6289 20 17.1914 19.4375 17.1914 18.75C17.1914 18.4 17.0539 18.0875 16.8289 17.8625L13.9539 15H18.4414C19.1289 15 19.6914 14.4375 19.6914 13.75V3.75C20.3789 3.75 20.9414 3.1875 20.9414 2.5C20.9414 1.8125 20.3789 1.25 19.6914 1.25ZM17.1914 12.5H4.69141V3.75H17.1914V12.5Z" fill="white"/>
</svg>
