<svg width="12" height="11" viewBox="0 0 12 11" fill="none" xmlns="http://www.w3.org/2000/svg">
<path fill-rule="evenodd" clip-rule="evenodd" d="M9 2.98145H3C2.5875 2.98145 2.25 3.31895 2.25 3.73145V4.48145H8.25V8.23144H9C9.4125 8.23144 9.75 7.89394 9.75 7.48144V3.73145C9.75 3.31895 9.4125 2.98145 9 2.98145ZM11.25 0.731445H5.25C4.8375 0.731445 4.5 1.06895 4.5 1.48145V2.23145H10.5V5.98145H11.25C11.6625 5.98145 12 5.64395 12 5.23145V1.48145C12 1.06895 11.6625 0.731445 11.25 0.731445ZM6.75 5.23145H0.75C0.3375 5.23145 0 5.56895 0 5.98145V9.73144C0 10.1439 0.3375 10.4814 0.75 10.4814H6.75C7.1625 10.4814 7.5 10.1439 7.5 9.73144V5.98145C7.5 5.56895 7.1625 5.23145 6.75 5.23145ZM6 8.98145H1.5V6.73145H6V8.98145Z" fill="#F7F7F8"/>
</svg>
