<svg width="20" height="20" viewBox="0 0 20 20" fill="none" xmlns="http://www.w3.org/2000/svg">
<path fill-rule="evenodd" clip-rule="evenodd" d="M7.5 12.5C6.125 12.5 5 11.375 5 10V3.75H1.25C0.5625 3.75 0 4.3125 0 5V15C0 15.6875 0.5625 16.25 1.25 16.25V18.75C1.25 19.4375 1.8125 20 2.5 20C2.85 20 3.1625 19.8625 3.3875 19.6375L6.7625 16.25H12.5C13.1875 16.25 13.75 15.6875 13.75 15V13.5375L12.7125 12.5H7.5ZM18.75 0H7.5C6.8125 0 6.25 0.5625 6.25 1.25V10C6.25 10.6875 6.8125 11.25 7.5 11.25H13.2375L16.625 14.6375C16.8375 14.8625 17.15 15 17.5 15C18.1875 15 18.75 14.4375 18.75 13.75V11.25C19.4375 11.25 20 10.6875 20 10V1.25C20 0.5625 19.4375 0 18.75 0Z" fill="#05051E"/>
</svg>
