<svg width="20" height="20" viewBox="0 0 20 20" fill="none" xmlns="http://www.w3.org/2000/svg">
<path fill-rule="evenodd" clip-rule="evenodd" d="M15 6.25C14.65 6.25 14.3375 6.3875 14.1125 6.6125L10 10.7375L5.8875 6.6125C5.6625 6.3875 5.35 6.25 5 6.25C4.3125 6.25 3.75 6.8125 3.75 7.5C3.75 7.85 3.8875 8.1625 4.1125 8.3875L9.1125 13.3875C9.3375 13.6125 9.65 13.75 10 13.75C10.35 13.75 10.6625 13.6125 10.8875 13.3875L15.8875 8.3875C16.1125 8.1625 16.25 7.85 16.25 7.5C16.25 6.8125 15.6875 6.25 15 6.25Z" fill="#05051E"/>
</svg>
