<svg width="20" height="20" viewBox="0 0 20 20" fill="none" xmlns="http://www.w3.org/2000/svg">
<path fill-rule="evenodd" clip-rule="evenodd" d="M13.3875 9.1125L8.3875 4.1125C8.1625 3.8875 7.85 3.75 7.5 3.75C6.8125 3.75 6.25 4.3125 6.25 5C6.25 5.35 6.3875 5.6625 6.6125 5.8875L10.7375 10L6.625 14.1125C6.3875 14.3375 6.25 14.65 6.25 15C6.25 15.6875 6.8125 16.25 7.5 16.25C7.85 16.25 8.1625 16.1125 8.3875 15.8875L13.3875 10.8875C13.6125 10.6625 13.75 10.35 13.75 10C13.75 9.65 13.6125 9.3375 13.3875 9.1125Z" fill="#05051E"/>
</svg>
