<svg width="20" height="20" viewBox="0 0 20 20" fill="none" xmlns="http://www.w3.org/2000/svg">
<path fill-rule="evenodd" clip-rule="evenodd" d="M15.8875 11.6125L10.8875 6.6125C10.6625 6.3875 10.35 6.25 10 6.25C9.65 6.25 9.3375 6.3875 9.1125 6.6125L4.1125 11.6125C3.8875 11.8375 3.75 12.15 3.75 12.5C3.75 13.1875 4.3125 13.75 5 13.75C5.35 13.75 5.6625 13.6125 5.8875 13.3875L10 9.2625L14.1125 13.375C14.3375 13.6125 14.65 13.75 15 13.75C15.6875 13.75 16.25 13.1875 16.25 12.5C16.25 12.15 16.1125 11.8375 15.8875 11.6125Z" fill="#05051E"/>
</svg>
