<svg width="20" height="20" viewBox="0 0 20 20" fill="none" xmlns="http://www.w3.org/2000/svg">
<path fill-rule="evenodd" clip-rule="evenodd" d="M17.5 17.5H2.5V2.5H13.45L15.95 2.50002e-08H1.25C0.5625 2.50002e-08 0 0.5625 0 1.25V18.75C0 19.4375 0.5625 20 1.25 20H18.75C19.4375 20 20 19.4375 20 18.75V7.8L17.5 10.3V17.5ZM19.25 0L12.125 7.125L14.75 9.75L20 4.5V0H19.25ZM5 14.9C7.9125 15.0875 10.525 15.0875 12.6875 13.025C13.7125 11.9875 13.7125 10.2125 12.6875 9.17498C12.125 8.69998 11.4625 8.42498 10.8125 8.42498C10.15 8.42498 9.5 8.69998 9.025 9.17498C8 10.3125 7.4375 13.4 5 14.9Z" fill="#05051E"/>
</svg>
