<svg width="20" height="20" viewBox="0 0 20 20" fill="none" xmlns="http://www.w3.org/2000/svg">
<path fill-rule="evenodd" clip-rule="evenodd" d="M10.1618 0.75C9.51471 0.75 8.9853 1.27941 8.9853 1.92647V18.3971C8.9853 19.0441 9.51471 19.5735 10.1618 19.5735C10.8088 19.5735 11.3382 19.0441 11.3382 18.3971V1.92647C11.3382 1.27941 10.8088 0.75 10.1618 0.75ZM6.63235 4.27941H1.92647C1.27941 4.27941 0.75 4.80882 0.75 5.45588V7.80882C0.75 8.45588 1.27941 8.98529 1.92647 8.98529H6.63235C7.27941 8.98529 7.80882 8.45588 7.80882 7.80882V5.45588C7.80882 4.80882 7.27941 4.27941 6.63235 4.27941ZM18.3971 4.27941H13.6912C13.0441 4.27941 12.5147 4.80882 12.5147 5.45588V7.80882C12.5147 8.45588 13.0441 8.98529 13.6912 8.98529H18.3971C19.0441 8.98529 19.5735 8.45588 19.5735 7.80882V5.45588C19.5735 4.80882 19.0441 4.27941 18.3971 4.27941ZM18.3971 7.80883H13.6912V5.45589H18.3971V7.80883ZM18.3971 11.3382H13.6912C13.0441 11.3382 12.5147 11.8676 12.5147 12.5147V14.8676C12.5147 15.5147 13.0441 16.0441 13.6912 16.0441H18.3971C19.0441 16.0441 19.5735 15.5147 19.5735 14.8676V12.5147C19.5735 11.8676 19.0441 11.3382 18.3971 11.3382ZM18.3971 14.8676H13.6912V12.5147H18.3971V14.8676ZM6.63235 11.3382H1.92647C1.27941 11.3382 0.75 11.8676 0.75 12.5147V14.8676C0.75 15.5147 1.27941 16.0441 1.92647 16.0441H6.63235C7.27941 16.0441 7.80882 15.5147 7.80882 14.8676V12.5147C7.80882 11.8676 7.27941 11.3382 6.63235 11.3382Z" fill="#05051E"/>
</svg>
