<svg width="20" height="18" viewBox="0 0 20 18" fill="none" xmlns="http://www.w3.org/2000/svg">
<path fill-rule="evenodd" clip-rule="evenodd" d="M4.375 7.75H13.125C13.475 7.75 13.75 7.475 13.75 7.125C13.75 6.775 13.475 6.5 13.125 6.5H4.375C4.025 6.5 3.75 6.775 3.75 7.125C3.75 7.475 4.025 7.75 4.375 7.75ZM18.75 0.25H1.25C0.5625 0.25 0 0.8125 0 1.5V16.5C0 17.1875 0.5625 17.75 1.25 17.75H18.75C19.4375 17.75 20 17.1875 20 16.5V1.5C20 0.8125 19.4375 0.25 18.75 0.25ZM17.5 15.25H2.5V5.25H17.5V15.25ZM4.375 10.25H9.375C9.725 10.25 10 9.975 10 9.625C10 9.275 9.725 9 9.375 9H4.375C4.025 9 3.75 9.275 3.75 9.625C3.75 9.975 4.025 10.25 4.375 10.25ZM4.375 12.75H10.625C10.975 12.75 11.25 12.475 11.25 12.125C11.25 11.775 10.975 11.5 10.625 11.5H4.375C4.025 11.5 3.75 11.775 3.75 12.125C3.75 12.475 4.025 12.75 4.375 12.75Z" fill="white"/>
</svg>
