<svg width="14" height="17" viewBox="0 0 14 17" fill="none" xmlns="http://www.w3.org/2000/svg">
<path fill-rule="evenodd" clip-rule="evenodd" d="M13.1082 4.72854H0.872932C0.609403 4.72854 0.402344 4.9356 0.402344 5.19913C0.402344 5.46266 0.609403 5.66972 0.872932 5.66972H1.34352V15.0815C1.34352 15.5991 1.76705 16.0227 2.2847 16.0227H11.6965C12.2141 16.0227 12.6376 15.5991 12.6376 15.0815V5.66972H13.1082C13.3718 5.66972 13.5788 5.46266 13.5788 5.19913C13.5788 4.9356 13.3718 4.72854 13.1082 4.72854ZM5.10828 13.1992C5.10828 13.7168 4.68475 14.1403 4.1671 14.1403C3.64945 14.1403 3.22592 13.7168 3.22592 13.1992V7.5521C3.22592 7.03445 3.64945 6.61092 4.1671 6.61092C4.68475 6.61092 5.10828 7.03445 5.10828 7.5521V13.1992ZM7.93185 13.1992C7.93185 13.7168 7.50832 14.1403 6.99068 14.1403C6.47303 14.1403 6.0495 13.7168 6.0495 13.1992V7.5521C6.0495 7.03445 6.47303 6.61092 6.99068 6.61092C7.50832 6.61092 7.93185 7.03445 7.93185 7.5521V13.1992ZM10.7554 13.1992C10.7554 13.7168 10.3319 14.1403 9.81425 14.1403C9.29661 14.1403 8.87308 13.7168 8.87308 13.1992V7.5521C8.87308 7.03445 9.29661 6.61092 9.81425 6.61092C10.3319 6.61092 10.7554 7.03445 10.7554 7.5521V13.1992ZM12.6376 1.90504H8.87293C8.87293 1.3874 8.4494 0.963867 7.93176 0.963867H6.0494C5.53176 0.963867 5.10823 1.3874 5.10823 1.90504H1.34352C0.825873 1.90504 0.402344 2.32857 0.402344 2.84622V3.7874H13.5788V2.84622C13.5788 2.32857 13.1553 1.90504 12.6376 1.90504Z" fill="#D6D6DD"/>
</svg>
