<svg width="20" height="20" viewBox="0 0 20 20" fill="none" xmlns="http://www.w3.org/2000/svg">
<path fill-rule="evenodd" clip-rule="evenodd" d="M18.75 0H1.25C0.5625 0 0 0.5625 0 1.25V13.75C0 14.4375 0.5625 15 1.25 15H7.1875L6.5625 17.5H5C4.3125 17.5 3.75 18.0625 3.75 18.75C3.75 19.4375 4.3125 20 5 20H15C15.6875 20 16.25 19.4375 16.25 18.75C16.25 18.0625 15.6875 17.5 15 17.5H13.4375L12.8125 15H18.75C19.4375 15 20 14.4375 20 13.75V1.25C20 0.5625 19.4375 0 18.75 0ZM17.5 12.5H2.5V2.5H17.5V12.5Z" fill="white"/>
</svg>
