<svg width="20" height="20" viewBox="0 0 20 20" fill="none" xmlns="http://www.w3.org/2000/svg">
<path fill-rule="evenodd" clip-rule="evenodd" d="M16.0375 11.8875C15.9125 11.5125 15.725 11.1625 15.475 10.8375C15.225 10.5125 14.9125 10.225 14.5375 9.9625C14.1625 9.7125 13.725 9.5125 13.225 9.3625C13.025 9.3125 12.6875 9.225 12.225 9.1125C11.7875 9 11.3125 8.8875 10.825 8.7625C10.3375 8.6375 9.9 8.525 9.5 8.425C9.1125 8.325 8.8875 8.275 8.825 8.2625C8.2875 8.1125 7.85 7.9 7.5125 7.6125C7.175 7.325 7.0125 6.925 7.0125 6.425C7.0125 6.0625 7.1 5.7625 7.275 5.525C7.45 5.2875 7.675 5.1 7.95 4.95C8.225 4.8125 8.525 4.7125 8.85 4.65C9.175 4.5875 9.5 4.55 9.8125 4.55C10.7375 4.55 11.5 4.7375 12.1 5.125C12.7 5.5 13.0375 6.1625 13.1125 7.075H15.7875C15.7875 6.325 15.625 5.6625 15.3125 5.1C15 4.5375 14.575 4.05 14.0375 3.6625C13.5 3.275 12.875 2.9875 12.175 2.7875C11.875 2.7125 11.5625 2.6625 11.2375 2.6125V1.25C11.2375 0.5625 10.675 0 9.9875 0C9.3 0 8.7375 0.5625 8.7375 1.25V2.6C8.45 2.6375 8.1625 2.6875 7.8875 2.7625C7.2125 2.925 6.6125 3.1875 6.0875 3.525C5.5625 3.875 5.1375 4.3125 4.8125 4.8375C4.4875 5.375 4.325 6 4.325 6.7125C4.325 7.0875 4.375 7.45 4.4875 7.8125C4.6 8.175 4.775 8.5125 5.0375 8.8375C5.3 9.1625 5.6375 9.45 6.075 9.7125C6.5125 9.975 7.0625 10.1875 7.7125 10.35C8.775 10.6125 9.6625 10.825 10.3875 11C11.1125 11.1625 11.7375 11.35 12.2875 11.525C12.6 11.6375 12.8875 11.8125 13.15 12.075C13.4125 12.3375 13.55 12.7375 13.55 13.2875C13.55 13.55 13.4875 13.8125 13.375 14.075C13.2625 14.3375 13.075 14.5625 12.8125 14.7625C12.55 14.9625 12.225 15.125 11.8 15.25C11.3875 15.375 10.8875 15.4375 10.3 15.4375C9.7625 15.4375 9.25 15.375 8.7875 15.2625C8.325 15.15 7.9125 14.9625 7.55 14.725C7.1875 14.475 6.9125 14.1625 6.7125 13.775C6.5125 13.3875 6.4125 12.925 6.4125 12.375H3.75C3.7625 13.2625 3.9375 14.025 4.2875 14.675C4.625 15.325 5.0875 15.85 5.6625 16.2625C6.2375 16.675 6.9 16.9875 7.675 17.1875C8.0125 17.275 8.375 17.3375 8.7375 17.3875V18.75C8.7375 19.4375 9.3 20 9.9875 20C10.675 20 11.2375 19.4375 11.2375 18.75V17.4375C11.6125 17.4 12 17.3375 12.3625 17.25C13.0875 17.0875 13.7375 16.825 14.3125 16.4625C14.8875 16.1 15.35 15.6375 15.7 15.075C16.05 14.5125 16.225 13.825 16.225 13.025C16.225 12.6375 16.1625 12.2625 16.0375 11.8875Z" fill="#05051E"/>
</svg>
