<svg width="14" height="5" viewBox="0 0 14 5" fill="none" xmlns="http://www.w3.org/2000/svg">
<path d="M1.75 0.776367C2.7165 0.776367 3.5 1.55987 3.5 2.52637C3.5 3.49287 2.7165 4.27637 1.75 4.27637C0.783502 4.27637 0 3.49287 0 2.52637C1.28851e-07 1.55987 0.783502 0.776367 1.75 0.776367ZM7 0.776367C7.9665 0.776367 8.75 1.55987 8.75 2.52637C8.75 3.49287 7.9665 4.27637 7 4.27637C6.0335 4.27637 5.25 3.49287 5.25 2.52637C5.25 1.55987 6.0335 0.776367 7 0.776367ZM12.25 0.776367C13.2165 0.776367 14 1.55987 14 2.52637C14 3.49287 13.2165 4.27637 12.25 4.27637C11.2835 4.27637 10.5 3.49287 10.5 2.52637C10.5 1.55987 11.2835 0.776367 12.25 0.776367Z" fill="#022B59"/>
</svg>
