<svg width="12" height="12" viewBox="0 0 12 12" fill="none" xmlns="http://www.w3.org/2000/svg">
<path fill-rule="evenodd" clip-rule="evenodd" d="M5.4675 8.7825C5.6025 8.9175 5.79 9 6 9C6.21 9 6.3975 8.9175 6.5325 8.7825L9.5325 5.7825C9.6675 5.6475 9.75 5.46 9.75 5.25C9.75 4.8375 9.4125 4.5 9 4.5C8.79 4.5 8.6025 4.5825 8.4675 4.7175L6.75 6.4425V0.75C6.75 0.3375 6.4125 -1.42863e-08 6 -1.42863e-08C5.5875 -1.42863e-08 5.25 0.3375 5.25 0.75V6.4425L3.5325 4.7175C3.3975 4.5825 3.21 4.5 3 4.5C2.5875 4.5 2.25 4.8375 2.25 5.25C2.25 5.46 2.3325 5.6475 2.4675 5.7825L5.4675 8.7825ZM11.25 8.25C10.8375 8.25 10.5 8.5875 10.5 9V10.5H1.5V9C1.5 8.5875 1.1625 8.25 0.75 8.25C0.3375 8.25 -1.42854e-08 8.5875 -1.42854e-08 9V11.25C-1.42854e-08 11.6625 0.3375 12 0.75 12H11.25C11.6625 12 12 11.6625 12 11.25V9C12 8.5875 11.6625 8.25 11.25 8.25Z" fill="#022B59"/>
</svg>
