<svg width="20" height="20" viewBox="0 0 20 20" fill="none" xmlns="http://www.w3.org/2000/svg">
<path fill-rule="evenodd" clip-rule="evenodd" d="M5 7.5C5.35 7.5 5.6625 7.3625 5.8875 7.1375L8.75 4.2625V13.75C8.75 14.4375 9.3125 15 10 15C10.6875 15 11.25 14.4375 11.25 13.75V4.2625L14.1125 7.125C14.3375 7.3625 14.65 7.5 15 7.5C15.6875 7.5 16.25 6.9375 16.25 6.25C16.25 5.9 16.1125 5.5875 15.8875 5.3625L10.8875 0.3625C10.6625 0.1375 10.35 0 10 0C9.65 0 9.3375 0.1375 9.1125 0.3625L4.1125 5.3625C3.8875 5.5875 3.75 5.9 3.75 6.25C3.75 6.9375 4.3125 7.5 5 7.5ZM18.75 13.75C18.0625 13.75 17.5 14.3125 17.5 15V17.5H2.5V15C2.5 14.3125 1.9375 13.75 1.25 13.75C0.5625 13.75 0 14.3125 0 15V18.75C0 19.4375 0.5625 20 1.25 20H18.75C19.4375 20 20 19.4375 20 18.75V15C20 14.3125 19.4375 13.75 18.75 13.75Z" fill="#05051E"/>
</svg>
