<svg width="20" height="10" viewBox="0 0 20 10" fill="none" xmlns="http://www.w3.org/2000/svg">
<path fill-rule="evenodd" clip-rule="evenodd" d="M18.75 3.75C18.0625 3.75 17.5 4.3125 17.5 5V5.7375L12.1375 0.3625C11.9125 0.1375 11.6 0 11.25 0C11.05 0 10.8625 0.0625 10.7 0.1375V0.125L6.25 2.35L1.8125 0.1375V0.15C1.6375 0.0625 1.45 0 1.25 0C0.5625 0 0 0.5625 0 1.25C0 1.7375 0.2875 2.15 0.7 2.3625V2.375L5.7 4.875V4.8625C5.8625 4.9375 6.05 5 6.25 5C6.45 5 6.6375 4.9375 6.8 4.8625V4.875L11 2.775L15.7375 7.5H15C14.3125 7.5 13.75 8.0625 13.75 8.75C13.75 9.4375 14.3125 10 15 10H18.75C19.4375 10 20 9.4375 20 8.75V5C20 4.3125 19.4375 3.75 18.75 3.75Z" fill="#DC2F23"/>
</svg>
