<svg width="20" height="20" viewBox="0 0 20 20" fill="none" xmlns="http://www.w3.org/2000/svg">
<path fill-rule="evenodd" clip-rule="evenodd" d="M2.575 8.3625C2.75 7.8625 3.2 7.5 3.75 7.5H17.5V6.25C17.5 5.5625 16.9375 5 16.25 5H8.0125L5.8875 2.8625C5.6625 2.6375 5.35 2.5 5 2.5H1.25C0.5625 2.5 0 3.0625 0 3.75V16.05L2.5625 8.3625H2.575ZM20 10C20 9.3125 19.4375 8.75 18.75 8.75H5C4.45 8.75 3.9875 9.1125 3.825 9.6125L1.325 17.1125C1.275 17.225 1.25 17.3625 1.25 17.5C1.25 18.1875 1.8125 18.75 2.5 18.75H16.25C16.8 18.75 17.2625 18.3875 17.425 17.8875L19.925 10.3875C19.975 10.275 20 10.1375 20 10Z" fill="#05051E"/>
</svg>
