<svg width="20" height="20" viewBox="0 0 20 20" fill="none" xmlns="http://www.w3.org/2000/svg">
<path fill-rule="evenodd" clip-rule="evenodd" d="M2.5 13.75V16.25H5V13.75H2.5ZM1.25 11.25H6.25C6.9375 11.25 7.5 11.8125 7.5 12.5V17.5C7.5 18.1875 6.9375 18.75 6.25 18.75H1.25C0.5625 18.75 0 18.1875 0 17.5V12.5C0 11.8125 0.5625 11.25 1.25 11.25ZM12.5 3.75H18.75C19.4375 3.75 20 4.3125 20 5C20 5.6875 19.4375 6.25 18.75 6.25H12.5C11.8125 6.25 11.25 5.6875 11.25 5C11.25 4.3125 11.8125 3.75 12.5 3.75ZM7.5 1.25C8.1875 1.25 8.75 1.8125 8.75 2.5C8.75 2.85 8.6125 3.1625 8.3875 3.3875L4.6375 8.3875C4.4125 8.6125 4.1 8.75 3.75 8.75C3.4 8.75 3.0875 8.6125 2.8625 8.3875L0.3625 5.8875C0.1375 5.6625 0 5.35 0 5C0 4.3125 0.5625 3.75 1.25 3.75C1.6 3.75 1.9125 3.8875 2.1375 4.1125L3.75 5.7375L6.6125 1.6125C6.8375 1.3875 7.15 1.25 7.5 1.25ZM12.5 13.75H18.75C19.4375 13.75 20 14.3125 20 15C20 15.6875 19.4375 16.25 18.75 16.25H12.5C11.8125 16.25 11.25 15.6875 11.25 15C11.25 14.3125 11.8125 13.75 12.5 13.75Z" fill="#05051E"/>
</svg>
