<svg width="20" height="20" viewBox="0 0 20 20" fill="none" xmlns="http://www.w3.org/2000/svg">
<path fill-rule="evenodd" clip-rule="evenodd" d="M18.75 5H15C14.3125 5 13.75 5.5625 13.75 6.25C13.75 6.9375 14.3125 7.5 15 7.5L15.7375 7.5L11 12.225L6.8125 10.1375V10.15C6.6375 10.0625 6.45 10 6.25 10C6.05 10 5.8625 10.0625 5.7 10.1375V10.125L0.7 12.625V12.6375C0.2875 12.85 0 13.2625 0 13.75C0 14.4375 0.5625 15 1.25 15C1.45 15 1.6375 14.9375 1.8 14.8625V14.875L6.25 12.65L10.6875 14.875V14.8625C10.8625 14.9375 11.05 15 11.25 15C11.6 15 11.9125 14.8625 12.1375 14.6375L17.5 9.2625V10C17.5 10.6875 18.0625 11.25 18.75 11.25C19.4375 11.25 20 10.6875 20 10V6.25C20 5.5625 19.4375 5 18.75 5Z" fill="#257F4E"/>
</svg>
