<svg width="24" height="21" viewBox="0 0 24 21" fill="none" xmlns="http://www.w3.org/2000/svg">
<path fill-rule="evenodd" clip-rule="evenodd" d="M21.9998 6.37024C21.9998 3.55136 19.6493 1.26611 16.7498 1.26611C14.6468 1.26611 12.8379 2.47111 11.9998 4.20699C11.1616 2.47099 9.35276 1.26611 7.24976 1.26611C4.35026 1.26611 1.99976 3.55124 1.99976 6.37024C1.99976 6.45236 2.00851 6.53224 2.01238 6.61336H2.00426C2.00613 6.67124 2.01813 6.73274 2.02163 6.79124C2.02663 6.85086 2.03188 6.91024 2.03901 6.96936C2.12601 7.96874 2.44026 9.04799 3.06876 10.1846C4.59126 12.9447 7.29038 15.024 11.9995 18.7515C16.7085 15.024 19.4076 12.9432 20.9301 10.1846C21.5563 9.05236 21.8701 7.97699 21.9588 6.98099C21.9671 6.91311 21.9731 6.84486 21.9788 6.77624C21.9818 6.72274 21.993 6.66624 21.9946 6.61324H21.9873C21.991 6.53211 21.9998 6.45224 21.9998 6.37024Z" stroke="#FAFAFB" stroke-width="2"/>
</svg>
