<svg width="24" height="21" viewBox="0 0 24 21" fill="none" xmlns="http://www.w3.org/2000/svg">
<path fill-rule="evenodd" clip-rule="evenodd" d="M22 6.86877C22 4.0499 19.6495 1.76465 16.75 1.76465C14.647 1.76465 12.8381 2.96965 12 4.70552C11.1619 2.96952 9.353 1.76465 7.25 1.76465C4.3505 1.76465 2 4.04977 2 6.86877C2 6.9509 2.00875 7.03077 2.01262 7.1119H2.0045C2.00637 7.16977 2.01837 7.23127 2.02187 7.28977C2.02687 7.3494 2.03212 7.40877 2.03925 7.4679C2.12625 8.46727 2.4405 9.54652 3.069 10.6831C4.5915 13.4433 7.29063 15.5225 11.9998 19.25C16.7088 15.5225 19.4079 13.4418 20.9304 10.6831C21.5565 9.5509 21.8704 8.47552 21.959 7.47952C21.9674 7.41165 21.9734 7.3434 21.979 7.27477C21.982 7.22127 21.9932 7.16477 21.9949 7.11177H21.9875C21.9912 7.03065 22 6.95077 22 6.86877Z" stroke="#022B59" stroke-width="2"/>
</svg>
