<svg width="31" height="24" viewBox="0 0 31 24" fill="none" xmlns="http://www.w3.org/2000/svg">
<path fill-rule="evenodd" clip-rule="evenodd" d="M23.016 10.0983C24.0513 10.0983 24.8984 9.2512 24.8984 8.21591C24.8984 7.18061 24.0513 6.33355 23.016 6.33355C21.9807 6.33355 21.1337 7.18061 21.1337 8.21591C21.1337 9.2512 21.9807 10.0983 23.016 10.0983ZM28.663 0.686523H2.31009C1.27479 0.686523 0.427734 1.53358 0.427734 2.56888V21.3924C0.427734 22.4277 1.27479 23.2748 2.31009 23.2748H28.663C29.6983 23.2748 30.5454 22.4277 30.5454 21.3924V2.56888C30.5454 1.53358 29.6983 0.686523 28.663 0.686523ZM26.7807 17.6276L17.3689 11.9805L15.4866 15.7452L9.83953 8.21583L4.19247 17.6276V4.45112H26.7807V17.6276Z" fill="#F7F7F8"/>
</svg>
