<svg width="12" height="12" viewBox="0 0 12 12" fill="none" xmlns="http://www.w3.org/2000/svg">
<path fill-rule="evenodd" clip-rule="evenodd" d="M11.9175 10.92L8.925 4.92H8.9175C8.79 4.6725 8.5425 4.5 8.25 4.5C7.9575 4.5 7.71 4.6725 7.5825 4.92H7.575L6.75 6.57L5.3775 5.535L5.55 5.4C6.2775 4.8525 6.75 3.9825 6.75 3V2.25H7.5C7.9125 2.25 8.25 1.9125 8.25 1.5C8.25 1.0875 7.9125 0.75 7.5 0.75H5.25C5.25 0.3375 4.9125 0 4.5 0H3.75C3.3375 0 3 0.3375 3 0.75H0.75C0.3375 0.75 0 1.0875 0 1.5C0 1.9125 0.3375 2.25 0.75 2.25H5.25V3C5.25 3.495 5.01 3.9375 4.635 4.2075L4.125 4.59L3.615 4.215C3.24 3.9375 3 3.495 3 3H1.5C1.5 3.9825 1.9725 4.8525 2.7 5.4L2.8725 5.5275L1.05 6.9L1.0575 6.9075C0.8775 7.05 0.75 7.2525 0.75 7.5C0.75 7.9125 1.0875 8.25 1.5 8.25C1.6725 8.25 1.815 8.1825 1.9425 8.0925L1.95 8.1L4.125 6.4725L6.075 7.935L4.5825 10.92H4.59C4.5375 11.0175 4.5 11.13 4.5 11.25C4.5 11.6625 4.8375 12 5.25 12C5.5425 12 5.79 11.8275 5.9175 11.58H5.925L6.465 10.5H10.035L10.575 11.5875H10.5825C10.71 11.8275 10.9575 12 11.25 12C11.6625 12 12 11.6625 12 11.25C12 11.13 11.9625 11.0175 11.9175 10.92ZM7.21482 8.99998L8.24981 6.92998L9.28481 8.99998H7.21482Z" fill="url(#paint0_linear_2436_4336)"/>
<defs>
<linearGradient id="paint0_linear_2436_4336" x1="11.4507" y1="-6.27729e-07" x2="-3.52196" y2="0.294394" gradientUnits="userSpaceOnUse">
<stop stop-color="#EC3228"/>
<stop offset="0.666366" stop-color="#F66B34"/>
<stop offset="1" stop-color="#FF9B3F"/>
</linearGradient>
</defs>
</svg>
