<svg width="20" height="20" viewBox="0 0 20 20" fill="none" xmlns="http://www.w3.org/2000/svg">
<path fill-rule="evenodd" clip-rule="evenodd" d="M17.4873 8.73743H5.5123L9.6248 4.62493C9.8498 4.39993 9.9873 4.08743 9.9873 3.73743C9.9873 3.04993 9.4248 2.48743 8.7373 2.48743C8.3873 2.48743 8.0748 2.62493 7.8498 2.84993L1.5998 9.09993C1.3748 9.33743 1.2373 9.64993 1.2373 9.98743C1.2373 10.3249 1.3748 10.6499 1.5998 10.8749L7.8498 17.1249C8.0748 17.3499 8.3873 17.4874 8.7373 17.4874C9.4248 17.4874 9.9873 16.9249 9.9873 16.2374C9.9873 15.8874 9.8498 15.5749 9.6248 15.3499L5.5123 11.2374H17.4998C18.1873 11.2374 18.7498 10.6749 18.7498 9.98743C18.7498 9.29993 18.1748 8.73743 17.4873 8.73743Z" fill="#05051E"/>
</svg>
