<svg width="20" height="20" viewBox="0 0 20 20" fill="none" xmlns="http://www.w3.org/2000/svg">
<path fill-rule="evenodd" clip-rule="evenodd" d="M9.375 15H10.625C11.3125 15 11.875 14.4375 11.875 13.75V2.5C11.875 1.8125 11.3125 1.25 10.625 1.25H9.375C8.6875 1.25 8.125 1.8125 8.125 2.5V13.75C8.125 14.4375 8.6875 15 9.375 15ZM15.625 15H16.875C17.5625 15 18.125 14.4375 18.125 13.75V6.25C18.125 5.5625 17.5625 5 16.875 5H15.625C14.9375 5 14.375 5.5625 14.375 6.25V13.75C14.375 14.4375 14.9375 15 15.625 15ZM18.125 16.25H1.875C1.1875 16.25 0.625 16.8125 0.625 17.5C0.625 18.1875 1.1875 18.75 1.875 18.75H18.125C18.8125 18.75 19.375 18.1875 19.375 17.5C19.375 16.8125 18.8125 16.25 18.125 16.25ZM3.125 15H4.375C5.0625 15 5.625 14.4375 5.625 13.75V8.75C5.625 8.0625 5.0625 7.5 4.375 7.5H3.125C2.4375 7.5 1.875 8.0625 1.875 8.75V13.75C1.875 14.4375 2.4375 15 3.125 15Z" fill="#05051E"/>
</svg>
