<svg width="20" height="20" viewBox="0 0 20 20" fill="none" xmlns="http://www.w3.org/2000/svg">
<path fill-rule="evenodd" clip-rule="evenodd" d="M0 18.75C0 19.4375 0.5625 20 1.25 20H3.75C4.4375 20 5 19.4375 5 18.75V11.75L0 13.75V18.75ZM7.5 11.875V18.75C7.5 19.4375 8.0625 20 8.75 20H11.25C11.9375 20 12.5 19.4375 12.5 18.75V12.5L11.25 13.75L7.5 11.875ZM16.25 8.75L15 10V18.75C15 19.4375 15.5625 20 16.25 20H18.75C19.4375 20 20 19.4375 20 18.75V9.85C19.675 9.9375 19.275 10 18.75 10C16.3 10 16.25 8.75 16.25 8.75ZM18.75 1.25H15C14.3125 1.25 13.75 1.8125 13.75 2.5C13.75 3.1875 14.3125 3.75 15 3.75H15.7375L11 8.475L6.8125 6.3875V6.4C6.6375 6.3125 6.45 6.25 6.25 6.25C6.05 6.25 5.8625 6.3125 5.7 6.3875V6.375L0.7 8.875V8.8875C0.2875 9.1 0 9.5125 0 10C0 10.6875 0.5625 11.25 1.25 11.25C1.45 11.25 1.6375 11.1875 1.8 11.1125V11.125L6.25 8.9L10.6875 11.125V11.1125C10.8625 11.1875 11.05 11.25 11.25 11.25C11.6 11.25 11.9125 11.1125 12.1375 10.8875L17.5 5.5125V6.25C17.5 6.9375 18.0625 7.5 18.75 7.5C19.4375 7.5 20 6.9375 20 6.25V2.5C20 1.8125 19.4375 1.25 18.75 1.25Z" fill="#05051E"/>
</svg>
