<svg width="20" height="20" viewBox="0 0 20 20" fill="none" xmlns="http://www.w3.org/2000/svg">
<path fill-rule="evenodd" clip-rule="evenodd" d="M14.6977 8.81154C15.3448 8.81154 15.8742 8.28213 15.8742 7.63507C15.8742 6.98801 15.3448 6.4586 14.6977 6.4586C14.0507 6.4586 13.5213 6.98801 13.5213 7.63507C13.5213 8.28213 14.0507 8.81154 14.6977 8.81154ZM18.2271 2.9292H1.75655C1.10949 2.9292 0.580078 3.45861 0.580078 4.10567V15.8704C0.580078 16.5174 1.10949 17.0468 1.75655 17.0468H18.2271C18.8742 17.0468 19.4036 16.5174 19.4036 15.8704V4.10567C19.4036 3.45861 18.8742 2.9292 18.2271 2.9292ZM17.0506 13.5174L11.1683 9.98799L9.99181 12.3409L6.4624 7.63505L2.93299 13.5174V5.28211H17.0506V13.5174Z" fill="#05051E"/>
</svg>
