<svg width="18" height="20" viewBox="0 0 18 20" fill="none" xmlns="http://www.w3.org/2000/svg">
<path fill-rule="evenodd" clip-rule="evenodd" d="M1.47266 6.2375H13.4352L11.8227 7.85C11.5977 8.0875 11.4602 8.4 11.4602 8.7375C11.4602 9.425 12.0227 9.9875 12.7102 9.9875C13.0602 9.9875 13.3727 9.85 13.5977 9.625L17.3352 5.875C17.5602 5.65 17.6977 5.3375 17.6977 4.9875C17.6977 4.6375 17.5602 4.325 17.3352 4.1L13.5977 0.35C13.3602 0.1375 13.0477 0 12.7102 0C12.0227 0 11.4602 0.5625 11.4602 1.25C11.4602 1.6 11.5977 1.9125 11.8227 2.1375L13.4352 3.75H1.47266C0.785156 3.75 0.222656 4.3125 0.222656 5C0.235156 5.6875 0.785156 6.2375 1.47266 6.2375ZM16.4727 13.7625H4.51019L6.12269 12.15C6.34769 11.9125 6.48519 11.6 6.48519 11.2625C6.48519 10.575 5.92269 10.0125 5.23519 10.0125C4.88519 10.0125 4.57269 10.15 4.34769 10.375L0.610192 14.125C0.385192 14.35 0.247692 14.6625 0.247692 15C0.247692 15.35 0.385192 15.6625 0.610192 15.8875L4.34769 19.6375C4.58519 19.8625 4.89769 20 5.23519 20C5.92269 20 6.48519 19.4375 6.48519 18.75C6.48519 18.4 6.34769 18.0875 6.12269 17.8625L4.51019 16.25H16.4727C17.1602 16.25 17.7227 15.6875 17.7227 15C17.7227 14.3125 17.1602 13.7625 16.4727 13.7625Z" fill="white"/>
</svg>
