<svg width="12" height="13" viewBox="0 0 12 13" fill="none" xmlns="http://www.w3.org/2000/svg">
<path fill-rule="evenodd" clip-rule="evenodd" d="M11.25 0.53125H0.75C0.3375 0.53125 0 0.86875 0 1.28125V11.7812C0 12.1938 0.3375 12.5312 0.75 12.5312H11.25C11.6625 12.5312 12 12.1938 12 11.7812V1.28125C12 0.86875 11.6625 0.53125 11.25 0.53125ZM10.5 11.0312H10.3875C10.365 10.9637 10.3575 10.9113 10.3275 10.8438C10.0725 10.2513 8.82 9.86125 7.9875 9.49375C7.155 9.12625 7.2675 8.90125 7.2375 8.59375C7.23 8.54875 7.23 8.50375 7.23 8.45875C7.515 8.20375 7.7475 7.85875 7.8975 7.46125C7.8975 7.46125 7.905 7.43875 7.905 7.43125C7.935 7.34125 7.965 7.25125 7.9875 7.16125C8.175 7.12375 8.2875 6.91375 8.3325 6.71875C8.3775 6.64375 8.4675 6.44875 8.445 6.23125C8.415 5.95375 8.3025 5.81875 8.1825 5.76625C8.1825 5.75125 8.1825 5.73625 8.1825 5.72125C8.1825 5.36125 8.1525 4.85125 8.085 4.51375C8.07 4.42375 8.0475 4.32625 8.025 4.23625C7.905 3.82375 7.6425 3.44875 7.305 3.19375C6.945 2.92375 6.45 2.78125 6 2.78125C5.5575 2.78125 5.055 2.92375 4.7025 3.19375C4.365 3.45625 4.1025 3.82375 3.9825 4.23625C3.9525 4.33375 3.9375 4.42375 3.9225 4.52125C3.855 4.85875 3.825 5.36875 3.825 5.72875C3.825 5.74375 3.825 5.75875 3.825 5.77375C3.69 5.81875 3.5775 5.95375 3.5475 6.23875C3.525 6.45625 3.615 6.64375 3.66 6.72625C3.705 6.92125 3.8175 7.13125 4.0125 7.16875C4.035 7.25875 4.065 7.35625 4.095 7.43875C4.095 7.44625 4.1025 7.45375 4.1025 7.45375V7.46125C4.26 7.86625 4.5 8.21875 4.7925 8.47375C4.7925 8.51125 4.785 8.55625 4.785 8.59375C4.755 8.90125 4.845 9.11875 4.0125 9.49375C3.18 9.86125 1.935 10.2513 1.6725 10.8438C1.6425 10.9113 1.635 10.9637 1.6125 11.0312H1.5V2.03125H10.5V11.0312Z" fill="#F7F7F8"/>
</svg>
