<svg width="33" height="28" viewBox="0 0 33 28" fill="none" xmlns="http://www.w3.org/2000/svg">
<path fill-rule="evenodd" clip-rule="evenodd" d="M18.5 18H4.5V10H18.5V6H2.5C1.4 6 0.5 6.9 0.5 8V20C0.5 21.1 1.4 22 2.5 22H18.5V18ZM26.5 24H24.5V4H26.5C27.6 4 28.5 3.1 28.5 2C28.5 0.9 27.6 0 26.5 0H24.5C23.76 0 23.1 0.22 22.5 0.56C21.9 0.22 21.24 0 20.5 0H18.5C17.4 0 16.5 0.9 16.5 2C16.5 3.1 17.4 4 18.5 4H20.5V24H18.5C17.4 24 16.5 24.9 16.5 26C16.5 27.1 17.4 28 18.5 28H20.5C21.24 28 21.9 27.78 22.5 27.44C23.1 27.78 23.76 28 24.5 28H26.5C27.6 28 28.5 27.1 28.5 26C28.5 24.9 27.6 24 26.5 24ZM30.5 6H26.5V10H28.5V18H26.5V22H30.5C31.6 22 32.5 21.1 32.5 20V8C32.5 6.9 31.6 6 30.5 6Z" fill="#F7F7F8"/>
</svg>
