<svg width="14" height="18" viewBox="0 0 14 18" fill="none" xmlns="http://www.w3.org/2000/svg">
<path fill-rule="evenodd" clip-rule="evenodd" d="M7 2C3.1325 2 0 5.1325 0 9C0 12.8675 3.1325 16 7 16C10.8675 16 14 12.8675 14 9C14 5.1325 10.8675 2 7 2ZM7.875 13.375H6.125V11.625H7.875V13.375ZM9.56369 7.67001C9.44119 7.95001 9.25744 8.23001 9.02119 8.51876L8.09369 9.72626C7.98869 9.85751 7.88369 9.98001 7.84869 10.0938C7.81369 10.2075 7.76994 10.3563 7.76994 10.5488V10.75H6.22994V9.77001C6.22994 9.77001 6.27369 9.32376 6.41369 9.14876L7.34994 7.88876C7.54244 7.66126 7.65619 7.46001 7.73494 7.29376C7.81369 7.12751 7.83994 6.96126 7.83994 6.78626C7.83994 6.52376 7.75244 6.30501 7.59494 6.13001C7.43744 5.96376 7.20994 5.88501 6.92994 5.88501C6.64119 5.88501 6.41369 5.97251 6.24744 6.13876C6.08119 6.30501 5.95869 6.54126 5.89744 6.84751C5.87119 6.94376 5.80994 6.97876 5.72244 6.97001L4.23494 6.75126C4.12994 6.74251 4.09494 6.68126 4.11244 6.58501C4.21744 5.86751 4.51494 5.29876 5.01369 4.88751C5.51244 4.46751 6.16869 4.25751 6.98244 4.25751C7.39369 4.25751 7.76994 4.31876 8.11119 4.45001C8.45244 4.58126 8.74119 4.74751 8.98619 4.96626C9.23119 5.18501 9.41494 5.44751 9.55494 5.74501C9.68619 6.05126 9.74744 6.37501 9.74744 6.72501C9.74744 7.07501 9.68619 7.38126 9.56369 7.67001Z" fill="#7F7F97"/>
</svg>
