<svg width="20" height="20" viewBox="0 0 20 20" fill="none" xmlns="http://www.w3.org/2000/svg">
<path fill-rule="evenodd" clip-rule="evenodd" d="M18.3748 9.11243L12.1248 2.86243C11.8998 2.62493 11.5873 2.48743 11.2373 2.48743C10.5498 2.48743 9.9873 3.04993 9.9873 3.73743C9.9873 4.08743 10.1248 4.39993 10.3498 4.62493L14.4623 8.73743H2.4873C1.7998 8.73743 1.2373 9.29993 1.2373 9.98743C1.2373 10.6749 1.7998 11.2374 2.4873 11.2374H14.4748L10.3623 15.3499C10.1373 15.5749 9.99981 15.8874 9.99981 16.2374C9.99981 16.9249 10.5623 17.4874 11.2498 17.4874C11.5998 17.4874 11.9123 17.3499 12.1373 17.1249L18.3873 10.8749C18.6123 10.6499 18.7498 10.3374 18.7498 9.98743C18.7498 9.63743 18.5998 9.33743 18.3748 9.11243Z" fill="#05051E"/>
</svg>
