<svg width="25" height="24" viewBox="0 0 25 24" fill="none" xmlns="http://www.w3.org/2000/svg">
<path d="M14.1255 21.0533L7.94722 14.4838C7.83556 14.3721 7.75239 14.2444 7.69772 14.1005C7.64306 13.9567 7.61572 13.804 7.61572 13.6425V12.901C7.61572 12.5612 7.73514 12.2719 7.97397 12.0333C8.21264 11.7944 8.50189 11.675 8.84172 11.675H11.5397C12.2722 11.675 12.9122 11.4653 13.4597 11.0458C14.0072 10.6261 14.3523 10.0902 14.495 9.43803H7.94072C7.57256 9.43803 7.25972 9.30928 7.00222 9.05178C6.74456 8.79411 6.61572 8.4812 6.61572 8.11303C6.61572 7.74486 6.74456 7.43203 7.00222 7.17453C7.25972 6.91686 7.57256 6.78803 7.94072 6.78803H14.2797C14.0342 6.28953 13.6511 5.8952 13.1305 5.60503C12.6098 5.3147 12.0466 5.16953 11.4407 5.16953H7.94072C7.57256 5.16953 7.25972 5.04078 7.00222 4.78328C6.74456 4.52561 6.61572 4.2127 6.61572 3.84453C6.61572 3.47653 6.74456 3.1637 7.00222 2.90603C7.25972 2.64836 7.57256 2.51953 7.94072 2.51953H17.9407C18.3089 2.51953 18.6217 2.64836 18.8792 2.90603C19.1369 3.1637 19.2657 3.47653 19.2657 3.84453C19.2657 4.2127 19.1369 4.52561 18.8792 4.78328C18.6217 5.04078 18.3089 5.16953 17.9407 5.16953H16.1712C16.3481 5.3682 16.5234 5.61528 16.6972 5.91078C16.8712 6.20645 17.0035 6.49886 17.094 6.78803H17.9407C18.3089 6.78803 18.6217 6.91686 18.8792 7.17453C19.1369 7.43203 19.2657 7.74486 19.2657 8.11303C19.2657 8.4812 19.1369 8.79411 18.8792 9.05178C18.6217 9.30928 18.3089 9.43803 17.9407 9.43803H17.2125C17.0508 10.817 16.4627 11.9622 15.4482 12.8735C14.4339 13.7847 13.23 14.2591 11.8365 14.2968H11.4365L16.0842 19.2153C16.4879 19.6449 16.5716 20.1299 16.3352 20.67C16.0991 21.2104 15.689 21.4805 15.105 21.4805C14.915 21.4805 14.7363 21.4438 14.569 21.3703C14.4016 21.2966 14.2538 21.1909 14.1255 21.0533Z" fill="white"/>
</svg>
