<svg width="20" height="20" viewBox="0 0 20 20" fill="none" xmlns="http://www.w3.org/2000/svg">
<path fill-rule="evenodd" clip-rule="evenodd" d="M12 11.175C12.3875 11.25 12.775 11.2875 13.1875 11.2875C13.4375 11.2875 13.6875 11.275 13.9375 11.2375C14.05 11.225 14.1375 11.2125 14.275 11.1875C14.4 11.175 14.55 11.1375 14.7625 11.0875L15.05 11C15.1 10.9875 15.15 10.975 15.1875 10.95L15.4625 11.225L12.0875 14.625C11.8625 14.8625 11.55 15 11.2 15C10.85 15 10.5375 14.8625 10.3125 14.625L6.225 10.5125L2.4875 14.2625V16.25H18.6625C19.35 16.25 19.9125 16.8125 19.9125 17.5C19.9125 18.1875 19.35 18.75 18.6625 18.75H1.25C0.5625 18.75 0 18.1875 0 17.5V4.98748C0 4.29998 0.5625 3.73748 1.25 3.73748C1.9375 3.73748 2.5 4.29998 2.5 4.98748V10.725L5.35 7.84998C5.5625 7.62498 5.875 7.48748 6.225 7.48748C6.575 7.48748 6.8875 7.62498 7.1 7.84998L11.2 11.975L12 11.175ZM19.775 10.6625C19.9 10.8125 19.9875 11 20 11.2125C20 11.6375 19.6625 11.975 19.2375 11.975C19.0125 11.975 18.825 11.8875 18.7 11.75L15.9 8.9375C15.7375 9.0375 15.575 9.1375 15.4 9.225C15.375 9.2375 15.3375 9.25 15.3125 9.2625C15.1375 9.3375 14.975 9.4125 14.7875 9.475H14.775C14.6 9.5375 14.4125 9.575 14.225 9.6125C14.175 9.625 14.125 9.6375 14.0875 9.6375C13.9 9.6625 13.7125 9.6875 13.5125 9.6875C11.2 9.6875 9.32501 7.8 9.32501 5.475C9.32501 3.15 11.2 1.2625 13.5125 1.25C15.825 1.25 17.7 3.1375 17.7 5.4625C17.7 5.6625 17.675 5.85 17.65 6.05C17.6375 6.1 17.6375 6.1375 17.625 6.1875C17.6 6.375 17.5625 6.55 17.5 6.7375V6.75C17.4375 6.9375 17.3625 7.1 17.2875 7.275C17.275 7.3 17.2625 7.3375 17.25 7.3625C17.1625 7.5375 17.075 7.7 16.9625 7.8625L19.775 10.6625ZM13.5125 8.23748C15.0375 8.23748 16.275 6.99998 16.275 5.46248C16.275 3.92498 15.0375 2.68748 13.5125 2.68748C11.9875 2.68748 10.75 3.92498 10.75 5.46248C10.75 6.98748 11.9875 8.23748 13.5125 8.23748Z" fill="#05051E"/>
</svg>
