<svg width="31" height="30" viewBox="0 0 31 30" fill="none" xmlns="http://www.w3.org/2000/svg">
<path fill-rule="evenodd" clip-rule="evenodd" d="M8.5 13C8.5 13.56 8.94 14 9.5 14H12.5V21C12.5 21.56 12.94 22 13.5 22C14.06 22 14.5 21.56 14.5 21V14H17.5C18.06 14 18.5 13.56 18.5 13C18.5 12.44 18.06 12 17.5 12H9.5C8.94 12 8.5 12.44 8.5 13ZM28.5 4H26.5V2C26.5 0.9 25.6 0 24.5 0C23.4 0 22.5 0.9 22.5 2V4H20.5C19.4 4 18.5 4.9 18.5 6C18.5 7.1 19.4 8 20.5 8H22.5V10C22.5 11.1 23.4 12 24.5 12C25.6 12 26.5 11.1 26.5 10V8H28.5C29.6 8 30.5 7.1 30.5 6C30.5 4.9 29.6 4 28.5 4ZM24.5 14C23.4 14 22.5 14.9 22.5 16V26H4.5V8H14.5C15.6 8 16.5 7.1 16.5 6C16.5 4.9 15.6 4 14.5 4H2.5C1.4 4 0.5 4.9 0.5 6V28C0.5 29.1 1.4 30 2.5 30H24.5C25.6 30 26.5 29.1 26.5 28V16C26.5 14.9 25.6 14 24.5 14Z" fill="#F7F7F8"/>
</svg>
