<svg width="12" height="13" viewBox="0 0 12 13" fill="none" xmlns="http://www.w3.org/2000/svg">
<path fill-rule="evenodd" clip-rule="evenodd" d="M6.75 3.53125H3.75C3.3375 3.53125 3 3.86875 3 4.28125C3 4.69375 3.3375 5.03125 3.75 5.03125H4.5V7.28125C4.5 7.69375 4.8375 8.03125 5.25 8.03125C5.6625 8.03125 6 7.69375 6 7.28125V5.03125H6.75C7.1625 5.03125 7.5 4.69375 7.5 4.28125C7.5 3.86875 7.1625 3.53125 6.75 3.53125ZM11.67 10.6112L9.6675 8.60875C10.1925 7.79125 10.5 6.82375 10.5 5.78125C10.5 2.87875 8.1525 0.53125 5.25 0.53125C2.3475 0.53125 0 2.87875 0 5.78125C0 8.68375 2.3475 11.0312 5.25 11.0312C6.2925 11.0312 7.26 10.7238 8.0775 10.1988L10.08 12.2013C10.2825 12.4038 10.5675 12.5312 10.875 12.5312C11.4975 12.5312 12 12.0288 12 11.4062C12 11.0988 11.8725 10.8138 11.67 10.6112ZM5.25 9.53125C3.18 9.53125 1.5 7.85125 1.5 5.78125C1.5 3.71125 3.18 2.03125 5.25 2.03125C7.32 2.03125 9 3.71125 9 5.78125C9 7.85125 7.32 9.53125 5.25 9.53125Z" fill="#F7F7F8"/>
</svg>
