<svg width="20" height="20" viewBox="0 0 20 20" fill="none" xmlns="http://www.w3.org/2000/svg">
<path fill-rule="evenodd" clip-rule="evenodd" d="M19.9875 12.025C19.8875 11.3 19.075 10.825 18.2 10.7125C18.0125 10.6875 17.8 10.6625 17.5875 10.65C17.6625 10.6375 17.725 10.6375 17.7875 10.625C18.675 10.525 19.325 10.0375 19.225 9.31253C19.125 8.58753 18.3125 8.11253 17.4375 8.00003C17.0125 7.95003 16.5375 7.91253 16.025 7.88753C16.025 7.88753 16.025 7.88753 16.0125 7.88753C15.7125 7.87503 15.4 7.86253 15.075 7.86253C14.475 7.83753 13.6875 7.81253 13.0875 7.76253C12.6375 7.72503 12.575 7.41253 12.625 7.10003C13.0625 5.97503 13.3 4.71253 13.25 3.46253C13.2 2.40003 12.5 1.36253 11.4875 1.25003C10.65 1.16253 10.0375 1.73753 10.25 2.47503C10.95 4.88753 7.6625 7.75003 5 9.36253V16.8625C7.075 18.15 10.4375 18.8125 14.35 18.7375C14.5875 18.7375 14.8375 18.725 15.125 18.7125C15.1625 18.7125 15.2 18.7125 15.2375 18.7125C15.5125 18.7 15.8125 18.675 16.15 18.65C17.0375 18.575 18.075 18.0125 18.025 17.2875C17.9875 16.65 17.525 16.3 16.9375 16.125C17.275 16.1 17.6125 16.075 17.925 16.05C18.8125 15.975 19.475 15.4875 19.3875 14.75C19.3125 14.025 18.5125 13.5375 17.625 13.4125C17.6 13.4125 17.5625 13.4 17.5375 13.4C17.9 13.375 18.25 13.3625 18.55 13.3375C19.4375 13.3 20.0875 12.75 19.9875 12.025ZM2.5 8.75H0V17.5H2.5C3.1875 17.5 3.75 16.9375 3.75 16.25V10C3.75 9.3 3.1875 8.75 2.5 8.75Z" fill="#05051E"/>
</svg>
