<svg width="20" height="20" viewBox="0 0 20 20" fill="none" xmlns="http://www.w3.org/2000/svg">
<path fill-rule="evenodd" clip-rule="evenodd" d="M17.5 3.75C17.15 3.75 16.8375 3.8875 16.6125 4.1125L7.5 13.2375L3.3875 9.1125C3.1625 8.8875 2.85 8.75 2.5 8.75C1.8125 8.75 1.25 9.3125 1.25 10C1.25 10.35 1.3875 10.6625 1.6125 10.8875L6.6125 15.8875C6.8375 16.1125 7.15 16.25 7.5 16.25C7.85 16.25 8.1625 16.1125 8.3875 15.8875L18.3875 5.8875C18.6125 5.6625 18.75 5.35 18.75 5C18.75 4.3125 18.1875 3.75 17.5 3.75Z" fill="#05051E"/>
</svg>
