<svg width="20" height="20" viewBox="0 0 20 20" fill="none" xmlns="http://www.w3.org/2000/svg">
<path fill-rule="evenodd" clip-rule="evenodd" d="M10 0C4.475 0 0 4.475 0 10C0 15.525 4.475 20 10 20C15.525 20 20 15.525 20 10C20 4.475 15.525 0 10 0ZM10 17.5C5.8625 17.5 2.5 14.1375 2.5 10C2.5 5.8625 5.8625 2.5 10 2.5C14.1375 2.5 17.5 5.8625 17.5 10C17.5 14.1375 14.1375 17.5 10 17.5ZM11.25 9.4875V5C11.25 4.3125 10.6875 3.75 10 3.75C9.3125 3.75 8.75 4.3125 8.75 5V10C8.75 10.35 8.8875 10.6625 9.1125 10.8875L11.6125 13.3875C11.8375 13.6125 12.15 13.75 12.5 13.75C13.1875 13.75 13.75 13.1875 13.75 12.5C13.75 12.15 13.6125 11.8375 13.3875 11.6125L11.25 9.4875Z" fill="#05051E"/>
</svg>
