<svg width="20" height="20" viewBox="0 0 20 20" fill="none" xmlns="http://www.w3.org/2000/svg">
<path fill-rule="evenodd" clip-rule="evenodd" d="M19.8625 18.2L14.875 8.2H14.8625C14.65 7.7875 14.2375 7.5 13.75 7.5C13.2625 7.5 12.85 7.7875 12.6375 8.2H12.625L11.25 10.95L8.9625 9.225L9.25 9C10.4625 8.0875 11.25 6.6375 11.25 5V3.75H12.5C13.1875 3.75 13.75 3.1875 13.75 2.5C13.75 1.8125 13.1875 1.25 12.5 1.25H8.75C8.75 0.5625 8.1875 0 7.5 0H6.25C5.5625 0 5 0.5625 5 1.25H1.25C0.5625 1.25 0 1.8125 0 2.5C0 3.1875 0.5625 3.75 1.25 3.75H8.75V5C8.75 5.825 8.35 6.5625 7.725 7.0125L6.875 7.65L6.025 7.025C5.4 6.5625 5 5.825 5 5H2.5C2.5 6.6375 3.2875 8.0875 4.5 9L4.7875 9.2125L1.75 11.5L1.7625 11.5125C1.4625 11.75 1.25 12.0875 1.25 12.5C1.25 13.1875 1.8125 13.75 2.5 13.75C2.7875 13.75 3.025 13.6375 3.2375 13.4875L3.25 13.5L6.875 10.7875L10.125 13.225L7.6375 18.2H7.65C7.5625 18.3625 7.5 18.55 7.5 18.75C7.5 19.4375 8.0625 20 8.75 20C9.2375 20 9.65 19.7125 9.8625 19.3H9.875L10.775 17.5H16.725L17.625 19.3125H17.6375C17.85 19.7125 18.2625 20 18.75 20C19.4375 20 20 19.4375 20 18.75C20 18.55 19.9375 18.3625 19.8625 18.2ZM12.025 15L13.75 11.55L15.475 15H12.025Z" fill="#05051E"/>
</svg>
