<svg width="20" height="20" viewBox="0 0 20 20" fill="none" xmlns="http://www.w3.org/2000/svg">
<path fill-rule="evenodd" clip-rule="evenodd" d="M16.5766 16.4913C16.5178 16.2089 16.4119 15.9031 16.2825 15.5972C15.859 14.5854 14.9648 14.0325 13.1178 13.2442C12.9531 13.1736 12.4237 12.9501 12.4119 12.9501C12.1648 12.8442 11.9884 12.7736 11.8237 12.6913C11.8472 12.5736 11.8472 12.456 11.859 12.3266C11.859 12.2795 11.8707 12.2325 11.8707 12.1736C11.7884 12.1031 11.7178 12.0325 11.6472 11.9501C11.906 11.5736 12.1178 11.1619 12.2825 10.7148C12.306 10.6442 12.306 10.6442 12.3178 10.5972C12.659 10.3266 12.8825 9.92659 13.0119 9.46776C13.2001 9.07953 13.306 8.60894 13.259 8.10306C13.2237 7.63247 13.0707 7.20894 12.8237 6.89129C12.8001 6.26776 12.7413 5.56188 12.6472 5.07953C12.6354 5.00894 12.6237 4.93835 12.6119 4.856C12.8825 4.78541 13.1766 4.75012 13.459 4.75012C14.0354 4.75012 14.6943 4.93835 15.1531 5.29129C15.6001 5.63247 15.9413 6.11482 16.0943 6.66776C16.1296 6.78541 16.1531 6.91482 16.1766 7.03247C16.259 7.46776 16.306 8.13835 16.306 8.59718C16.306 8.6207 16.306 8.64423 16.306 8.656C16.4707 8.72659 16.6237 8.90306 16.6472 9.256C16.6707 9.55012 16.5648 9.78541 16.4943 9.89129C16.4354 10.1384 16.306 10.4089 16.0472 10.456C16.0237 10.5736 15.9884 10.6913 15.9413 10.8089C15.9413 10.8207 15.9296 10.8442 15.9296 10.8442C15.7296 11.3619 15.4237 11.8207 15.0472 12.1501C15.0472 12.2089 15.0472 12.2678 15.0472 12.3148C15.0825 12.7266 14.9413 13.0089 16.0237 13.4913C17.1178 13.9736 18.7531 14.4795 19.0825 15.256C19.4237 16.0325 19.2825 16.4795 19.2825 16.4795H16.5766V16.4913ZM15.2001 16.0442C15.6354 17.056 15.4589 17.6442 15.4589 17.6442H0.541291C0.541291 17.6442 0.376585 17.056 0.800115 16.0442C1.22364 15.0324 3.306 14.3619 4.69423 13.7383C6.0707 13.103 5.92953 12.7266 5.97659 12.2089C5.97659 12.1501 5.98835 12.0795 5.98835 12.0089C5.506 11.5972 5.106 10.9972 4.84717 10.303V10.2913C4.84717 10.2913 4.83541 10.2795 4.83541 10.2677C4.78835 10.1266 4.72953 9.96186 4.69423 9.80892C4.36482 9.7501 4.17659 9.38539 4.106 9.05598C4.03541 8.9148 3.88247 8.59716 3.91776 8.22069C3.96482 7.73833 4.16482 7.5148 4.37659 7.42069C4.37659 7.39716 4.37659 7.37363 4.37659 7.3501C4.37659 6.7501 4.43541 5.86774 4.54129 5.30304C4.56482 5.1501 4.60011 4.98539 4.64717 4.83245C4.84717 4.12657 5.28247 3.50304 5.84717 3.05598C6.43541 2.59716 7.2707 2.3501 8.01188 2.3501C8.75306 2.3501 9.58835 2.59716 10.1766 3.05598C10.7413 3.50304 11.1766 4.12657 11.3766 4.84422C11.4236 4.99716 11.4589 5.16186 11.4825 5.3148C11.5884 5.87951 11.6472 6.7501 11.6472 7.3501C11.6472 7.37363 11.6472 7.40892 11.6472 7.43245C11.8589 7.52657 12.0472 7.7501 12.0825 8.22069C12.1178 8.59716 11.9766 8.9148 11.8942 9.05598C11.8236 9.38539 11.6472 9.73833 11.3295 9.79716C11.2942 9.9501 11.2472 10.103 11.1883 10.256C11.1883 10.2677 11.1766 10.303 11.1766 10.303C10.9178 10.9854 10.5295 11.5736 10.0589 12.0089C10.0589 12.0795 10.0589 12.1619 10.0589 12.2207C10.106 12.7501 9.91776 13.1266 11.306 13.7501C12.6942 14.3736 14.7766 15.0324 15.2001 16.0442Z" fill="#05051E"/>
</svg>
