<svg width="16" height="14" viewBox="0 0 16 14" fill="none" xmlns="http://www.w3.org/2000/svg">
<path fill-rule="evenodd" clip-rule="evenodd" d="M15.3815 12.1768L15.3909 12.1674L8.80269 0.873286L8.79328 0.882698C8.63328 0.600345 8.34151 0.412109 7.99328 0.412109C7.64504 0.412109 7.36269 0.600345 7.19328 0.882698L7.18387 0.873286L0.595632 12.1674L0.605044 12.1768C0.520338 12.318 0.463867 12.4686 0.463867 12.6474C0.463867 13.1651 0.887397 13.5886 1.40504 13.5886H14.5815C15.0992 13.5886 15.5227 13.1651 15.5227 12.6474C15.5227 12.4686 15.4662 12.318 15.3815 12.1768ZM8.93445 11.6968H7.0521V9.81447H8.93445V11.6968ZM8.93445 8.87327H7.0521V4.16738H8.93445V8.87327Z" fill="#FF9B3F"/>
</svg>
