<svg width="20" height="20" viewBox="0 0 20 20" fill="none" xmlns="http://www.w3.org/2000/svg">
<path fill-rule="evenodd" clip-rule="evenodd" d="M19.2271 16.4705L19.2389 16.4588L11.0036 2.34112L10.9918 2.35288C10.7918 1.99994 10.4271 1.76465 9.99184 1.76465C9.55655 1.76465 9.20361 1.99994 8.99184 2.35288L8.98008 2.34112L0.744784 16.4588L0.756549 16.4705C0.650666 16.647 0.580078 16.8352 0.580078 17.0588C0.580078 17.7058 1.10949 18.2352 1.75655 18.2352H18.2271C18.8742 18.2352 19.4036 17.7058 19.4036 17.0588C19.4036 16.8352 19.333 16.647 19.2271 16.4705ZM11.1683 15.8705H8.81538V13.5176H11.1683V15.8705ZM11.1683 12.3411H8.81538V6.45879H11.1683V12.3411Z" fill="#05051E"/>
</svg>
