<svg width="23" height="16" viewBox="0 0 23 16" fill="none" xmlns="http://www.w3.org/2000/svg">
<path d="M22.5224 2.49989C22.2595 1.51644 21.4851 0.742019 20.5017 0.479175C18.719 0.00146484 11.5714 0.00146484 11.5714 0.00146484C11.5714 0.00146484 4.42378 0.00146484 2.64106 0.479175C1.6578 0.742019 0.883188 1.51644 0.620344 2.49989C0.142822 4.28242 0.142822 8.00156 0.142822 8.00156C0.142822 8.00156 0.142822 11.7207 0.620344 13.503C0.883188 14.4865 1.6578 15.2611 2.64106 15.5239C4.42378 16.0015 11.5714 16.0015 11.5714 16.0015C11.5714 16.0015 18.719 16.0015 20.5017 15.5239C21.4851 15.2611 22.2595 14.4865 22.5224 13.503C23.0001 11.7207 23.0001 8.00156 23.0001 8.00156C23.0001 8.00156 23.0001 4.28242 22.5224 2.49989Z" fill="#E91D25"/>
<path d="M9.28442 11.4315L15.2228 8.00286L9.28442 4.57422V11.4315Z" fill="white"/>
</svg>
