<svg width="20" height="14" viewBox="0 0 20 14" fill="none" xmlns="http://www.w3.org/2000/svg">
<path d="M19.5821 2.18613C19.3521 1.3256 18.6745 0.647985 17.814 0.417996C16.2541 0 9.99998 0 9.99998 0C9.99998 0 3.74583 0 2.18596 0.417996C1.3256 0.647985 0.64782 1.3256 0.417832 2.18613C0 3.74583 0 7.00008 0 7.00008C0 7.00008 0 10.2543 0.417832 11.8139C0.64782 12.6744 1.3256 13.3522 2.18596 13.5822C3.74583 14 9.99998 14 9.99998 14C9.99998 14 16.2541 14 17.814 13.5822C18.6745 13.3522 19.3521 12.6744 19.5821 11.8139C20.0001 10.2543 20.0001 7.00008 20.0001 7.00008C20.0001 7.00008 20.0001 3.74583 19.5821 2.18613Z" fill="#E91D25"/>
<path d="M7.99023 10.0138L13.1863 7.01373L7.99023 4.01367V10.0138Z" fill="white"/>
</svg>
